Game of Thrones (2012)

 
http://www.imdb.com/title/tt0944947/


Seven noble families fight for control of the mythical land of Westeros.


language: English


screenshots included in torrent


General
Complete name                            : Game.of.Thrones.S02E05.HDTV.XviD-Atilla82.avi
Format                                   : AVI
Format/Info                              : Audio Video Interleave
File size                                : 349 MiB
Duration                                 : 54mn 46s
Overall bit rate                         : 890 Kbps
Writing application                      : Lavf52.61.0

Video
ID                                       : 0
Format                                   : MPEG-4 Visual
Format profile                           : Advanced Simple@L5
Format settings, BVOP                    : No
Format settings, QPel                    : Yes
Format settings, GMC                     : No warppoints
Format settings, Matrix                  : Default (H.263)
Codec ID                                 : XVID
Codec ID/Hint                            : XviD
Duration                                 : 54mn 46s
Bit rate                                 : 749 Kbps
Width                                    : 680 pixels
Height                                   : 380 pixels
Display aspect ratio                     : 16:9
Frame rate                               : 23.976 fps
Color space                              : YUV
Chroma subsampling                       : 4:2:0
Bit depth                                : 8 bits
Scan type                                : Progressive
Compression mode                         : Lossy
Bits/(Pixel*Frame)                       : 0.121
Stream size                              : 294 MiB (84%)
Writing library                          : XviD 64

Audio
ID                                       : 1
Format                                   : MPEG Audio
Format version                           : Version 1
Format profile                           : Layer 3
Codec ID                                 : 55
Codec ID/Hint                            : MP3
Duration                                 : 54mn 46s
Bit rate mode                            : Constant
Bit rate                                 : 128 Kbps
Channel(s)                               : 2 channels
Sampling rate                            : 48.0 KHz
Compression mode                         : Lossy
Stream size                              : 50.1 MiB (14%)
Alignment                                : Aligned on interleaves
Interleave, duration                     : 24 ms (0.58 video frame)



